<mxfile host="app.diagrams.net" agent="Mozilla/5.0 (Windows NT 10.0; Win64; x64) AppleWebKit/537.36 (KHTML, like Gecko) Chrome/130.0.0.0 Safari/537.36" version="24.8.2">
  <diagram name="Page-1" id="0783ab3e-0a74-02c8-0abd-f7b4e66b4bec">
    <mxGraphModel dx="1050" dy="1622" grid="1" gridSize="10" guides="1" tooltips="1" connect="1" arrows="1" fold="1" page="1" pageScale="1" pageWidth="850" pageHeight="1100" background="none" math="0" shadow="0">
      <root>
        <mxCell id="0" />
        <mxCell id="1" parent="0" />
        <mxCell id="SuKj-52TLjRaKkaDjuvk-41" style="rounded=0;orthogonalLoop=1;jettySize=auto;html=1;exitX=0.5;exitY=0;exitDx=0;exitDy=0;entryX=0;entryY=0.5;entryDx=0;entryDy=0;endArrow=none;endFill=0;startArrow=classic;startFill=1;" parent="1" source="SuKj-52TLjRaKkaDjuvk-45" target="SuKj-52TLjRaKkaDjuvk-40" edge="1">
          <mxGeometry relative="1" as="geometry" />
        </mxCell>
        <mxCell id="SuKj-52TLjRaKkaDjuvk-51" style="rounded=0;orthogonalLoop=1;jettySize=auto;html=1;exitX=1;exitY=0.3333333333333333;exitDx=0;exitDy=0;exitPerimeter=0;entryX=0;entryY=0.5;entryDx=0;entryDy=0;endArrow=classic;endFill=1;" parent="1" source="SuKj-52TLjRaKkaDjuvk-1" target="SuKj-52TLjRaKkaDjuvk-40" edge="1">
          <mxGeometry relative="1" as="geometry" />
        </mxCell>
        <mxCell id="SuKj-52TLjRaKkaDjuvk-1" value="Ofertante" style="shape=umlActor;verticalLabelPosition=bottom;verticalAlign=top;html=1;outlineConnect=0;" parent="1" vertex="1">
          <mxGeometry x="70" y="40" width="50" height="160" as="geometry" />
        </mxCell>
        <mxCell id="SuKj-52TLjRaKkaDjuvk-28" style="rounded=0;orthogonalLoop=1;jettySize=auto;html=1;exitX=0;exitY=0.3333333333333333;exitDx=0;exitDy=0;exitPerimeter=0;entryX=1;entryY=0.5;entryDx=0;entryDy=0;endArrow=classic;endFill=1;" parent="1" source="SuKj-52TLjRaKkaDjuvk-3" target="SuKj-52TLjRaKkaDjuvk-40" edge="1">
          <mxGeometry relative="1" as="geometry" />
        </mxCell>
        <mxCell id="SuKj-52TLjRaKkaDjuvk-3" value="Consumidor" style="shape=umlActor;verticalLabelPosition=bottom;verticalAlign=top;html=1;outlineConnect=0;" parent="1" vertex="1">
          <mxGeometry x="740" y="40" width="50" height="160" as="geometry" />
        </mxCell>
        <mxCell id="SuKj-52TLjRaKkaDjuvk-43" style="rounded=0;orthogonalLoop=1;jettySize=auto;html=1;entryX=0.5;entryY=0;entryDx=0;entryDy=0;endArrow=classic;endFill=1;startArrow=none;startFill=0;" parent="1" source="SuKj-52TLjRaKkaDjuvk-6" target="SuKj-52TLjRaKkaDjuvk-40" edge="1">
          <mxGeometry relative="1" as="geometry" />
        </mxCell>
        <mxCell id="SuKj-52TLjRaKkaDjuvk-6" value="Admin" style="shape=umlActor;verticalLabelPosition=bottom;verticalAlign=top;html=1;outlineConnect=0;" parent="1" vertex="1">
          <mxGeometry x="145" y="-320" width="50" height="160" as="geometry" />
        </mxCell>
        <mxCell id="SuKj-52TLjRaKkaDjuvk-11" style="rounded=0;orthogonalLoop=1;jettySize=auto;html=1;exitX=1;exitY=0.5;exitDx=0;exitDy=0;entryX=0;entryY=0.5;entryDx=0;entryDy=0;endArrow=none;endFill=0;" parent="1" source="SuKj-52TLjRaKkaDjuvk-13" target="SuKj-52TLjRaKkaDjuvk-9" edge="1">
          <mxGeometry relative="1" as="geometry" />
        </mxCell>
        <mxCell id="SuKj-52TLjRaKkaDjuvk-14" style="edgeStyle=orthogonalEdgeStyle;rounded=0;orthogonalLoop=1;jettySize=auto;html=1;entryX=0.5;entryY=1;entryDx=0;entryDy=0;endArrow=none;endFill=0;" parent="1" source="SuKj-52TLjRaKkaDjuvk-7" target="SuKj-52TLjRaKkaDjuvk-13" edge="1">
          <mxGeometry relative="1" as="geometry" />
        </mxCell>
        <mxCell id="SuKj-52TLjRaKkaDjuvk-7" value="Usuario" style="shape=umlActor;verticalLabelPosition=bottom;verticalAlign=top;html=1;outlineConnect=0;" parent="1" vertex="1">
          <mxGeometry x="395" y="610" width="50" height="160" as="geometry" />
        </mxCell>
        <mxCell id="SuKj-52TLjRaKkaDjuvk-8" value="Registro como ofertante" style="ellipse;whiteSpace=wrap;html=1;" parent="1" vertex="1">
          <mxGeometry x="235" y="490" width="100" height="40" as="geometry" />
        </mxCell>
        <mxCell id="SuKj-52TLjRaKkaDjuvk-9" value="&lt;div&gt;Registro como consumidor&lt;/div&gt;" style="ellipse;whiteSpace=wrap;html=1;" parent="1" vertex="1">
          <mxGeometry x="515" y="490" width="100" height="40" as="geometry" />
        </mxCell>
        <mxCell id="SuKj-52TLjRaKkaDjuvk-10" style="rounded=0;orthogonalLoop=1;jettySize=auto;html=1;exitX=1;exitY=0.5;exitDx=0;exitDy=0;entryX=0;entryY=0.5;entryDx=0;entryDy=0;endArrow=none;endFill=0;" parent="1" source="SuKj-52TLjRaKkaDjuvk-8" target="SuKj-52TLjRaKkaDjuvk-13" edge="1">
          <mxGeometry relative="1" as="geometry" />
        </mxCell>
        <mxCell id="SuKj-52TLjRaKkaDjuvk-13" value="Registro" style="ellipse;whiteSpace=wrap;html=1;" parent="1" vertex="1">
          <mxGeometry x="370" y="540" width="100" height="40" as="geometry" />
        </mxCell>
        <mxCell id="SuKj-52TLjRaKkaDjuvk-16" value="Crear actividad" style="ellipse;whiteSpace=wrap;html=1;" parent="1" vertex="1">
          <mxGeometry x="325" y="340" width="100" height="40" as="geometry" />
        </mxCell>
        <mxCell id="SuKj-52TLjRaKkaDjuvk-17" value="Actualizar actividad" style="ellipse;whiteSpace=wrap;html=1;" parent="1" vertex="1">
          <mxGeometry x="230" y="370" width="100" height="40" as="geometry" />
        </mxCell>
        <mxCell id="SuKj-52TLjRaKkaDjuvk-18" value="Borrar actividad" style="ellipse;whiteSpace=wrap;html=1;" parent="1" vertex="1">
          <mxGeometry x="120" y="370" width="100" height="40" as="geometry" />
        </mxCell>
        <mxCell id="SuKj-52TLjRaKkaDjuvk-23" style="rounded=0;orthogonalLoop=1;jettySize=auto;html=1;exitX=0.5;exitY=0;exitDx=0;exitDy=0;endArrow=none;endFill=0;startArrow=classic;startFill=1;entryX=0.5;entryY=1;entryDx=0;entryDy=0;" parent="1" source="SuKj-52TLjRaKkaDjuvk-19" target="SuKj-52TLjRaKkaDjuvk-45" edge="1">
          <mxGeometry relative="1" as="geometry">
            <mxPoint x="230" y="380" as="targetPoint" />
          </mxGeometry>
        </mxCell>
        <mxCell id="SuKj-52TLjRaKkaDjuvk-19" value="&lt;font style=&quot;font-size: 11px;&quot;&gt;Seleccionar todas sus actividades&lt;/font&gt;" style="ellipse;whiteSpace=wrap;html=1;" parent="1" vertex="1">
          <mxGeometry x="20" y="340" width="100" height="40" as="geometry" />
        </mxCell>
        <mxCell id="SuKj-52TLjRaKkaDjuvk-20" style="rounded=0;orthogonalLoop=1;jettySize=auto;html=1;exitX=0.5;exitY=0;exitDx=0;exitDy=0;endArrow=none;endFill=0;startArrow=classic;startFill=1;entryX=0.5;entryY=1;entryDx=0;entryDy=0;" parent="1" source="SuKj-52TLjRaKkaDjuvk-16" target="SuKj-52TLjRaKkaDjuvk-45" edge="1">
          <mxGeometry relative="1" as="geometry">
            <mxPoint x="230" y="380" as="targetPoint" />
          </mxGeometry>
        </mxCell>
        <mxCell id="SuKj-52TLjRaKkaDjuvk-21" style="rounded=0;orthogonalLoop=1;jettySize=auto;html=1;exitX=0.5;exitY=0;exitDx=0;exitDy=0;endArrow=none;endFill=0;startArrow=classic;startFill=1;entryX=0.5;entryY=1;entryDx=0;entryDy=0;" parent="1" source="SuKj-52TLjRaKkaDjuvk-17" target="SuKj-52TLjRaKkaDjuvk-45" edge="1">
          <mxGeometry relative="1" as="geometry">
            <mxPoint x="230" y="380" as="targetPoint" />
          </mxGeometry>
        </mxCell>
        <mxCell id="SuKj-52TLjRaKkaDjuvk-22" style="rounded=0;orthogonalLoop=1;jettySize=auto;html=1;exitX=0.5;exitY=0;exitDx=0;exitDy=0;endArrow=none;endFill=0;startArrow=classic;startFill=1;entryX=0.5;entryY=1;entryDx=0;entryDy=0;" parent="1" source="SuKj-52TLjRaKkaDjuvk-18" target="SuKj-52TLjRaKkaDjuvk-45" edge="1">
          <mxGeometry relative="1" as="geometry">
            <mxPoint x="230" y="380" as="targetPoint" />
          </mxGeometry>
        </mxCell>
        <mxCell id="SuKj-52TLjRaKkaDjuvk-24" value="Consultar/filtrar&lt;div&gt;actividades&lt;/div&gt;" style="ellipse;whiteSpace=wrap;html=1;" parent="1" vertex="1">
          <mxGeometry x="585" y="340" width="100" height="40" as="geometry" />
        </mxCell>
        <mxCell id="SuKj-52TLjRaKkaDjuvk-38" style="rounded=0;orthogonalLoop=1;jettySize=auto;html=1;exitX=0.5;exitY=0;exitDx=0;exitDy=0;entryX=0;entryY=0.5;entryDx=0;entryDy=0;endArrow=none;endFill=0;startArrow=classic;startFill=1;" parent="1" source="SuKj-52TLjRaKkaDjuvk-36" target="SuKj-52TLjRaKkaDjuvk-24" edge="1">
          <mxGeometry relative="1" as="geometry" />
        </mxCell>
        <mxCell id="SuKj-52TLjRaKkaDjuvk-36" value="Inscribirse en actividad" style="ellipse;whiteSpace=wrap;html=1;" parent="1" vertex="1">
          <mxGeometry x="460" y="410" width="100" height="40" as="geometry" />
        </mxCell>
        <mxCell id="SuKj-52TLjRaKkaDjuvk-39" style="rounded=0;orthogonalLoop=1;jettySize=auto;html=1;exitX=0.5;exitY=0;exitDx=0;exitDy=0;entryX=1;entryY=0.5;entryDx=0;entryDy=0;endArrow=none;endFill=0;startArrow=classic;startFill=1;" parent="1" source="SuKj-52TLjRaKkaDjuvk-37" target="SuKj-52TLjRaKkaDjuvk-24" edge="1">
          <mxGeometry relative="1" as="geometry" />
        </mxCell>
        <mxCell id="SuKj-52TLjRaKkaDjuvk-37" value="&lt;font style=&quot;font-size: 11px;&quot;&gt;Desinscribirse&lt;/font&gt;" style="ellipse;whiteSpace=wrap;html=1;" parent="1" vertex="1">
          <mxGeometry x="730" y="410" width="100" height="40" as="geometry" />
        </mxCell>
        <mxCell id="SuKj-52TLjRaKkaDjuvk-56" style="rounded=0;orthogonalLoop=1;jettySize=auto;html=1;exitX=0.5;exitY=0;exitDx=0;exitDy=0;entryX=0.5;entryY=1;entryDx=0;entryDy=0;" parent="1" source="SuKj-52TLjRaKkaDjuvk-40" target="SuKj-52TLjRaKkaDjuvk-55" edge="1">
          <mxGeometry relative="1" as="geometry" />
        </mxCell>
        <mxCell id="SuKj-52TLjRaKkaDjuvk-40" value="&lt;font style=&quot;font-size: 11px;&quot;&gt;Login&lt;/font&gt;" style="ellipse;whiteSpace=wrap;html=1;" parent="1" vertex="1">
          <mxGeometry x="210" y="-10" width="100" height="40" as="geometry" />
        </mxCell>
        <mxCell id="SuKj-52TLjRaKkaDjuvk-72" style="rounded=0;orthogonalLoop=1;jettySize=auto;html=1;exitX=1;exitY=0.5;exitDx=0;exitDy=0;entryX=0.5;entryY=1;entryDx=0;entryDy=0;" parent="1" source="SuKj-52TLjRaKkaDjuvk-45" target="SuKj-52TLjRaKkaDjuvk-71" edge="1">
          <mxGeometry relative="1" as="geometry" />
        </mxCell>
        <mxCell id="SuKj-52TLjRaKkaDjuvk-45" value="&lt;span style=&quot;font-size: 11px;&quot;&gt;Login ofertante&lt;/span&gt;" style="ellipse;whiteSpace=wrap;html=1;" parent="1" vertex="1">
          <mxGeometry x="170" y="240" width="100" height="40" as="geometry" />
        </mxCell>
        <mxCell id="SuKj-52TLjRaKkaDjuvk-54" style="rounded=0;orthogonalLoop=1;jettySize=auto;html=1;exitX=0.5;exitY=1;exitDx=0;exitDy=0;entryX=0.5;entryY=0;entryDx=0;entryDy=0;" parent="1" source="SuKj-52TLjRaKkaDjuvk-48" target="SuKj-52TLjRaKkaDjuvk-24" edge="1">
          <mxGeometry relative="1" as="geometry" />
        </mxCell>
        <mxCell id="SuKj-52TLjRaKkaDjuvk-74" style="rounded=0;orthogonalLoop=1;jettySize=auto;html=1;entryX=1;entryY=0.5;entryDx=0;entryDy=0;" parent="1" source="SuKj-52TLjRaKkaDjuvk-48" target="SuKj-52TLjRaKkaDjuvk-73" edge="1">
          <mxGeometry relative="1" as="geometry" />
        </mxCell>
        <mxCell id="SuKj-52TLjRaKkaDjuvk-48" value="&lt;font style=&quot;font-size: 11px;&quot;&gt;Login consumidor&lt;/font&gt;" style="ellipse;whiteSpace=wrap;html=1;" parent="1" vertex="1">
          <mxGeometry x="560" y="240" width="100" height="40" as="geometry" />
        </mxCell>
        <mxCell id="SuKj-52TLjRaKkaDjuvk-52" style="rounded=0;orthogonalLoop=1;jettySize=auto;html=1;exitX=1;exitY=0.5;exitDx=0;exitDy=0;entryX=0.5;entryY=0;entryDx=0;entryDy=0;" parent="1" source="SuKj-52TLjRaKkaDjuvk-40" target="SuKj-52TLjRaKkaDjuvk-48" edge="1">
          <mxGeometry relative="1" as="geometry" />
        </mxCell>
        <mxCell id="SuKj-52TLjRaKkaDjuvk-60" style="rounded=0;orthogonalLoop=1;jettySize=auto;html=1;exitX=1;exitY=0.5;exitDx=0;exitDy=0;entryX=0;entryY=0.5;entryDx=0;entryDy=0;" parent="1" source="SuKj-52TLjRaKkaDjuvk-55" target="SuKj-52TLjRaKkaDjuvk-58" edge="1">
          <mxGeometry relative="1" as="geometry" />
        </mxCell>
        <mxCell id="SuKj-52TLjRaKkaDjuvk-63" style="rounded=0;orthogonalLoop=1;jettySize=auto;html=1;entryX=0;entryY=0.5;entryDx=0;entryDy=0;exitX=1;exitY=0.5;exitDx=0;exitDy=0;" parent="1" source="SuKj-52TLjRaKkaDjuvk-55" target="SuKj-52TLjRaKkaDjuvk-62" edge="1">
          <mxGeometry relative="1" as="geometry" />
        </mxCell>
        <mxCell id="SuKj-52TLjRaKkaDjuvk-67" style="rounded=0;orthogonalLoop=1;jettySize=auto;html=1;" parent="1" source="SuKj-52TLjRaKkaDjuvk-55" edge="1">
          <mxGeometry relative="1" as="geometry">
            <mxPoint x="425" y="-340" as="targetPoint" />
          </mxGeometry>
        </mxCell>
        <mxCell id="SuKj-52TLjRaKkaDjuvk-69" style="rounded=0;orthogonalLoop=1;jettySize=auto;html=1;exitX=1;exitY=0.5;exitDx=0;exitDy=0;entryX=0;entryY=0.5;entryDx=0;entryDy=0;" parent="1" source="SuKj-52TLjRaKkaDjuvk-55" target="SuKj-52TLjRaKkaDjuvk-68" edge="1">
          <mxGeometry relative="1" as="geometry" />
        </mxCell>
        <mxCell id="SuKj-52TLjRaKkaDjuvk-55" value="&lt;font style=&quot;font-size: 11px;&quot;&gt;Login admin&lt;/font&gt;" style="ellipse;whiteSpace=wrap;html=1;" parent="1" vertex="1">
          <mxGeometry x="375" y="-260" width="100" height="40" as="geometry" />
        </mxCell>
        <mxCell id="SuKj-52TLjRaKkaDjuvk-58" value="&lt;font style=&quot;font-size: 11px;&quot;&gt;Borrar registros&lt;/font&gt;" style="ellipse;whiteSpace=wrap;html=1;" parent="1" vertex="1">
          <mxGeometry x="530" y="-320" width="100" height="40" as="geometry" />
        </mxCell>
        <mxCell id="SuKj-52TLjRaKkaDjuvk-62" value="&lt;font style=&quot;font-size: 11px;&quot;&gt;Actualizar registros&lt;/font&gt;" style="ellipse;whiteSpace=wrap;html=1;" parent="1" vertex="1">
          <mxGeometry x="670" y="-310" width="100" height="40" as="geometry" />
        </mxCell>
        <mxCell id="SuKj-52TLjRaKkaDjuvk-68" value="&lt;font style=&quot;font-size: 11px;&quot;&gt;Consultar registros&lt;/font&gt;" style="ellipse;whiteSpace=wrap;html=1;" parent="1" vertex="1">
          <mxGeometry x="670" y="-220" width="100" height="40" as="geometry" />
        </mxCell>
        <mxCell id="SuKj-52TLjRaKkaDjuvk-70" value="&lt;font style=&quot;font-size: 11px;&quot;&gt;Logout&lt;/font&gt;" style="ellipse;whiteSpace=wrap;html=1;" parent="1" vertex="1">
          <mxGeometry x="375" y="-380" width="100" height="40" as="geometry" />
        </mxCell>
        <mxCell id="SuKj-52TLjRaKkaDjuvk-71" value="&lt;font style=&quot;font-size: 11px;&quot;&gt;Logout&lt;/font&gt;" style="ellipse;whiteSpace=wrap;html=1;" parent="1" vertex="1">
          <mxGeometry x="275" y="150" width="100" height="40" as="geometry" />
        </mxCell>
        <mxCell id="SuKj-52TLjRaKkaDjuvk-73" value="&lt;font style=&quot;font-size: 11px;&quot;&gt;Logout&lt;/font&gt;" style="ellipse;whiteSpace=wrap;html=1;" parent="1" vertex="1">
          <mxGeometry x="410" y="220" width="100" height="40" as="geometry" />
        </mxCell>
        <mxCell id="_sI5mFkuETfgKd2EawUG-4" style="rounded=0;orthogonalLoop=1;jettySize=auto;html=1;exitX=1;exitY=0.5;exitDx=0;exitDy=0;startArrow=classic;startFill=1;endArrow=none;endFill=0;" parent="1" source="_sI5mFkuETfgKd2EawUG-3" target="SuKj-52TLjRaKkaDjuvk-7" edge="1">
          <mxGeometry relative="1" as="geometry" />
        </mxCell>
        <mxCell id="_sI5mFkuETfgKd2EawUG-3" value="Consultar todas las actividades" style="ellipse;whiteSpace=wrap;html=1;" parent="1" vertex="1">
          <mxGeometry x="145" y="570" width="100" height="40" as="geometry" />
        </mxCell>
      </root>
    </mxGraphModel>
  </diagram>
</mxfile>
